<mxfile host="app.diagrams.net" agent="Mozilla/5.0 (Windows NT 10.0; Win64; x64) AppleWebKit/537.36 (KHTML, like Gecko) Chrome/131.0.0.0 Safari/537.36" version="26.0.4">
  <diagram name="第 1 页" id="W5_Eh6WZ5-N1XiKOqgzU">
    <mxGraphModel dx="1781" dy="618" grid="1" gridSize="10" guides="1" tooltips="1" connect="1" arrows="1" fold="1" page="1" pageScale="1" pageWidth="827" pageHeight="1169" math="0" shadow="0">
      <root>
        <mxCell id="0" />
        <mxCell id="1" parent="0" />
        <mxCell id="8hqYbvLuznQ5aF8A1cHL-21" value="" style="rounded=1;whiteSpace=wrap;html=1;" vertex="1" parent="1">
          <mxGeometry x="50" y="80" width="270" height="360" as="geometry" />
        </mxCell>
        <mxCell id="8hqYbvLuznQ5aF8A1cHL-8" value="&lt;font style=&quot;text-wrap-mode: nowrap; font-size: 14px;&quot;&gt;待梳理grpc协议能力&lt;br&gt;星河排期纳管&lt;/font&gt;" style="rounded=1;whiteSpace=wrap;html=1;" vertex="1" parent="1">
          <mxGeometry x="520" y="80" width="200" height="360" as="geometry" />
        </mxCell>
        <mxCell id="WllOK95YWm6MOxgD5Ajx-18" value="" style="rounded=1;whiteSpace=wrap;html=1;fillColor=#fff2cc;strokeColor=#d6b656;" parent="1" vertex="1">
          <mxGeometry x="90" y="140" width="200" height="150" as="geometry" />
        </mxCell>
        <mxCell id="WllOK95YWm6MOxgD5Ajx-22" value="&lt;font size=&quot;1&quot; color=&quot;#ff0000&quot;&gt;&lt;b style=&quot;font-size: 14px;&quot;&gt;算法开发以下服务接口&lt;/b&gt;&lt;/font&gt;" style="text;html=1;align=center;verticalAlign=middle;whiteSpace=wrap;rounded=0;" parent="1" vertex="1">
          <mxGeometry x="110" y="100" width="160" height="30" as="geometry" />
        </mxCell>
        <mxCell id="WllOK95YWm6MOxgD5Ajx-23" value="&lt;font size=&quot;1&quot; color=&quot;#ff0000&quot;&gt;&lt;b style=&quot;font-size: 14px;&quot;&gt;星河纳管的能力&lt;/b&gt;&lt;/font&gt;" style="text;html=1;align=center;verticalAlign=middle;whiteSpace=wrap;rounded=0;" parent="1" vertex="1">
          <mxGeometry x="570" y="110" width="100" height="30" as="geometry" />
        </mxCell>
        <mxCell id="WllOK95YWm6MOxgD5Ajx-26" value="&lt;b&gt;声音删除接口&lt;/b&gt;" style="rounded=1;whiteSpace=wrap;html=1;fillColor=#d5e8d4;strokeColor=#82b366;" parent="1" vertex="1">
          <mxGeometry x="90" y="300" width="200" height="30" as="geometry" />
        </mxCell>
        <mxCell id="WllOK95YWm6MOxgD5Ajx-31" value="&lt;b&gt;声音查询接口&lt;/b&gt;" style="rounded=1;whiteSpace=wrap;html=1;fillColor=#dae8fc;strokeColor=#6c8ebf;" parent="1" vertex="1">
          <mxGeometry x="90" y="340" width="200" height="30" as="geometry" />
        </mxCell>
        <mxCell id="8hqYbvLuznQ5aF8A1cHL-1" value="&lt;b&gt;&lt;font&gt;校验&lt;/font&gt;&lt;/b&gt;&lt;div&gt;&lt;span style=&quot;background-color: transparent; color: light-dark(rgb(0, 0, 0), rgb(255, 255, 255));&quot;&gt;信噪比&lt;/span&gt;&lt;/div&gt;&lt;div&gt;&lt;div&gt;语音是否足够长&lt;/div&gt;&lt;div&gt;用户说了的话和文本是否匹配&lt;/div&gt;&lt;div&gt;说话人是否一个人，有杂音&lt;/div&gt;&lt;div&gt;做降噪处理&lt;/div&gt;&lt;/div&gt;&lt;div&gt;&lt;b&gt;&lt;font&gt;特征提取&lt;/font&gt;&lt;/b&gt;&lt;/div&gt;" style="text;html=1;align=center;verticalAlign=middle;resizable=0;points=[];autosize=1;strokeColor=none;fillColor=none;" vertex="1" parent="1">
          <mxGeometry x="100" y="170" width="180" height="110" as="geometry" />
        </mxCell>
        <mxCell id="8hqYbvLuznQ5aF8A1cHL-11" value="&lt;b&gt;声音注册接口&lt;/b&gt;" style="text;html=1;align=center;verticalAlign=middle;resizable=0;points=[];autosize=1;strokeColor=none;fillColor=none;" vertex="1" parent="1">
          <mxGeometry x="145" y="140" width="100" height="30" as="geometry" />
        </mxCell>
        <mxCell id="8hqYbvLuznQ5aF8A1cHL-13" value="&lt;b&gt;声音合成接口&lt;/b&gt;" style="rounded=1;whiteSpace=wrap;html=1;fillColor=#f8cecc;strokeColor=#b85450;" vertex="1" parent="1">
          <mxGeometry x="90" y="380" width="200" height="30" as="geometry" />
        </mxCell>
        <mxCell id="8hqYbvLuznQ5aF8A1cHL-15" value="数据库" style="shape=cylinder3;whiteSpace=wrap;html=1;boundedLbl=1;backgroundOutline=1;size=15;" vertex="1" parent="1">
          <mxGeometry x="380" y="250" width="64" height="60" as="geometry" />
        </mxCell>
        <mxCell id="8hqYbvLuznQ5aF8A1cHL-16" value="&lt;font style=&quot;color: rgb(255, 0, 0);&quot;&gt;待确认&lt;/font&gt;&lt;div&gt;&lt;font style=&quot;color: rgb(255, 0, 0);&quot;&gt;数据库类型&lt;/font&gt;&lt;/div&gt;" style="text;html=1;align=center;verticalAlign=middle;resizable=0;points=[];autosize=1;strokeColor=none;fillColor=none;" vertex="1" parent="1">
          <mxGeometry x="374" y="310" width="80" height="40" as="geometry" />
        </mxCell>
        <mxCell id="8hqYbvLuznQ5aF8A1cHL-17" value="" style="endArrow=classic;html=1;rounded=0;exitX=0;exitY=0.25;exitDx=0;exitDy=0;entryX=1;entryY=0.25;entryDx=0;entryDy=0;" edge="1" parent="1" source="8hqYbvLuznQ5aF8A1cHL-8" target="8hqYbvLuznQ5aF8A1cHL-21">
          <mxGeometry relative="1" as="geometry">
            <mxPoint x="330" y="260" as="sourcePoint" />
            <mxPoint x="320" y="210" as="targetPoint" />
          </mxGeometry>
        </mxCell>
        <mxCell id="8hqYbvLuznQ5aF8A1cHL-18" value="从星河调用能力" style="edgeLabel;resizable=0;html=1;;align=center;verticalAlign=middle;" connectable="0" vertex="1" parent="8hqYbvLuznQ5aF8A1cHL-17">
          <mxGeometry relative="1" as="geometry" />
        </mxCell>
        <mxCell id="8hqYbvLuznQ5aF8A1cHL-22" value="&lt;b&gt;&lt;font style=&quot;color: rgb(255, 0, 0);&quot;&gt;EOP&lt;/font&gt;&lt;/b&gt;" style="rounded=0;whiteSpace=wrap;html=1;fillColor=#ffe6cc;strokeColor=#d79b00;" vertex="1" parent="1">
          <mxGeometry x="-80" y="80" width="40" height="360" as="geometry" />
        </mxCell>
        <mxCell id="8hqYbvLuznQ5aF8A1cHL-24" value="" style="endArrow=classic;html=1;rounded=0;exitX=0;exitY=0.5;exitDx=0;exitDy=0;entryX=1;entryY=0.5;entryDx=0;entryDy=0;" edge="1" parent="1" source="8hqYbvLuznQ5aF8A1cHL-21" target="8hqYbvLuznQ5aF8A1cHL-22">
          <mxGeometry relative="1" as="geometry">
            <mxPoint x="170" y="280" as="sourcePoint" />
            <mxPoint x="270" y="280" as="targetPoint" />
          </mxGeometry>
        </mxCell>
        <mxCell id="8hqYbvLuznQ5aF8A1cHL-25" value="在EOP上&lt;div&gt;注册服务&lt;/div&gt;" style="edgeLabel;resizable=0;html=1;;align=center;verticalAlign=middle;" connectable="0" vertex="1" parent="8hqYbvLuznQ5aF8A1cHL-24">
          <mxGeometry relative="1" as="geometry" />
        </mxCell>
        <mxCell id="8hqYbvLuznQ5aF8A1cHL-26" value="" style="endArrow=classic;html=1;rounded=0;exitX=1.004;exitY=0.385;exitDx=0;exitDy=0;exitPerimeter=0;entryX=0.145;entryY=0;entryDx=0;entryDy=4.35;entryPerimeter=0;" edge="1" parent="1" source="8hqYbvLuznQ5aF8A1cHL-21" target="8hqYbvLuznQ5aF8A1cHL-15">
          <mxGeometry width="50" height="50" relative="1" as="geometry">
            <mxPoint x="330" y="300" as="sourcePoint" />
            <mxPoint x="380" y="250" as="targetPoint" />
          </mxGeometry>
        </mxCell>
        <mxCell id="8hqYbvLuznQ5aF8A1cHL-27" value="" style="endArrow=classic;html=1;rounded=0;exitX=0;exitY=1;exitDx=0;exitDy=-15;exitPerimeter=0;entryX=1;entryY=0.75;entryDx=0;entryDy=0;" edge="1" parent="1" source="8hqYbvLuznQ5aF8A1cHL-15" target="8hqYbvLuznQ5aF8A1cHL-21">
          <mxGeometry width="50" height="50" relative="1" as="geometry">
            <mxPoint x="330" y="300" as="sourcePoint" />
            <mxPoint x="380" y="250" as="targetPoint" />
          </mxGeometry>
        </mxCell>
        <mxCell id="8hqYbvLuznQ5aF8A1cHL-30" value="" style="endArrow=classic;html=1;rounded=0;exitX=0;exitY=0.25;exitDx=0;exitDy=0;entryX=1;entryY=0.25;entryDx=0;entryDy=0;" edge="1" parent="1">
          <mxGeometry relative="1" as="geometry">
            <mxPoint x="520" y="380" as="sourcePoint" />
            <mxPoint x="320" y="380" as="targetPoint" />
          </mxGeometry>
        </mxCell>
        <mxCell id="8hqYbvLuznQ5aF8A1cHL-31" value="从星河调用能力" style="edgeLabel;resizable=0;html=1;;align=center;verticalAlign=middle;" connectable="0" vertex="1" parent="8hqYbvLuznQ5aF8A1cHL-30">
          <mxGeometry relative="1" as="geometry" />
        </mxCell>
        <mxCell id="8hqYbvLuznQ5aF8A1cHL-32" value="Actor" style="shape=umlActor;verticalLabelPosition=bottom;verticalAlign=top;html=1;outlineConnect=0;" vertex="1" parent="1">
          <mxGeometry x="-170" y="230" width="30" height="60" as="geometry" />
        </mxCell>
        <mxCell id="8hqYbvLuznQ5aF8A1cHL-34" value="" style="endArrow=classic;html=1;rounded=0;exitX=0;exitY=0.5;exitDx=0;exitDy=0;" edge="1" parent="1" source="8hqYbvLuznQ5aF8A1cHL-22" target="8hqYbvLuznQ5aF8A1cHL-32">
          <mxGeometry relative="1" as="geometry">
            <mxPoint x="90" y="270" as="sourcePoint" />
            <mxPoint x="190" y="270" as="targetPoint" />
          </mxGeometry>
        </mxCell>
      </root>
    </mxGraphModel>
  </diagram>
</mxfile>
